<svg xmlns="http://www.w3.org/2000/svg" style="display:none">

	<symbol id="first" viewBox="0 0 28.375 39.18">
	<filter id="filter" x="411.125" y="1061.41" width="28.375" height="39.18" filterUnits="userSpaceOnUse">
		<feFlood result="flood" flood-color="#636363"/>
		<feComposite result="composite" operator="in" in2="SourceGraphic"/>
		<feBlend result="blend" in2="SourceGraphic"/>
	</filter>
	<path id="icon" class="cls-1" d="M435.214,1061.4a22.649,22.649,0,0,1-6.77,4.39c-26.046,9.34-15.061,27.55-14.7,27.61a14.924,14.924,0,0,1,3.434-3.96c12.519-9.13,15.064-19.64,15.064-19.64s-2.809,12.65-13.948,20.52c-2.46,1.73-4.125,6.01-4.83,10.28,0,0,1.743-.7,2.493-0.89a13.7,13.7,0,0,1,1.938-5.32c15.567,1.84,20.665-10.6,21.331-14.94A26.628,26.628,0,0,0,435.214,1061.4Z" transform="translate(-411.125 -1061.41)"/>
	</symbol>

	<symbol id="zvezda" viewBox="0 0 41.563 39.69">
		<filter id="filter" x="704" y="1061.19" width="41.563" height="39.69" filterUnits="userSpaceOnUse">
			<feFlood result="flood" flood-color="#e5493a"/>
			<feComposite result="composite" operator="in" in2="SourceGraphic"/>
			<feBlend result="blend" in2="SourceGraphic"/>
		</filter>
	<path id="icon" class="cls-1" d="M742.552,1075.27c-0.645-1.99.235-4.77-.971-6.42-1.218-1.67-4.15-1.69-5.823-2.9-1.657-1.21-2.573-3.99-4.564-4.63-1.92-.62-4.292,1.07-6.421,1.07s-4.5-1.69-6.421-1.07c-1.991.64-2.907,3.42-4.565,4.63s-4.6,1.23-5.821,2.9c-1.206,1.65-.326,4.43-0.972,6.42-0.624,1.91-3,3.64-3,5.76s2.372,3.85,3,5.76c0.645,1.99-.235,4.77.972,6.42,1.218,1.67,4.148,1.69,5.822,2.9,1.657,1.21,2.573,3.99,4.564,4.64,1.921,0.62,4.292-1.08,6.421-1.08s4.5,1.7,6.421,1.08c1.99-.65,2.907-3.43,4.564-4.63,1.673-1.22,4.6-1.24,5.823-2.91,1.205-1.65.325-4.43,0.97-6.41,0.625-1.92,3-3.65,3-5.77S743.176,1077.18,742.552,1075.27Zm-17.779,20.3a14.54,14.54,0,1,1,14.577-14.54A14.573,14.573,0,0,1,724.773,1095.57Zm0-26.71a12.17,12.17,0,1,0,12.2,12.17A12.2,12.2,0,0,0,724.773,1068.86Zm8.123,10.74-3.947,3.27,1.267,4.96a0.725,0.725,0,0,1-.28.77,0.733,0.733,0,0,1-.826.03l-4.337-2.73-4.336,2.73a0.733,0.733,0,0,1-.826-0.03,0.722,0.722,0,0,1-.28-0.77l1.267-4.96-3.947-3.27a0.725,0.725,0,0,1-.229-0.79,0.747,0.747,0,0,1,.652-0.51l5.119-.33,1.9-4.75a0.738,0.738,0,0,1,1.367,0l1.9,4.75,5.119,0.33a0.748,0.748,0,0,1,.652.51A0.731,0.731,0,0,1,732.9,1079.6Z" transform="translate(-704 -1061.19)"/>
	</symbol>

	<symbol id="smartfon" xmlns="http://www.w3.org/2000/svg" viewBox="0 0 25 40.09">
		<filter id="filter" x="1013" y="1060.91" width="25" height="40.09" filterUnits="userSpaceOnUse">
			<feFlood result="flood" flood-color="#636363"/>
			<feComposite result="composite" operator="in" in2="SourceGraphic"/>
			<feBlend result="blend" in2="SourceGraphic"/>
		</filter>
		<path id="icon" class="cls-1" d="M1034.74,1060.89h-18.47a3.237,3.237,0,0,0-3.26,3.21v33.69a3.229,3.229,0,0,0,3.26,3.2h18.47a3.229,3.229,0,0,0,3.26-3.2V1064.1A3.237,3.237,0,0,0,1034.74,1060.89Zm-12.22,2.93a0.788,0.788,0,0,1,.8-0.79h4.37a0.794,0.794,0,0,1,.8.79v0.02a0.794,0.794,0,0,1-.8.79h-4.37a0.788,0.788,0,0,1-.8-0.79v-0.02Zm2.98,35.97a1.735,1.735,0,1,1,1.77-1.74A1.752,1.752,0,0,1,1025.5,1099.79Zm9.78-5.21a0.536,0.536,0,0,1-.54.53h-18.47a0.536,0.536,0,0,1-.54-0.53v-27.27a0.538,0.538,0,0,1,.54-0.54h18.47a0.538,0.538,0,0,1,.54.54v27.27Zm-2.71-16.04h-14.13a0.529,0.529,0,0,0-.54.53v0.01a0.536,0.536,0,0,0,.54.53h14.13a0.536,0.536,0,0,0,.54-0.53v-0.01A0.529,0.529,0,0,0,1032.57,1078.54Zm0-8.56h-1.63a0.546,0.546,0,0,0-.55.54v1.6a0.546,0.546,0,0,0,.55.54h1.63a0.538,0.538,0,0,0,.54-0.54v-1.6A0.538,0.538,0,0,0,1032.57,1069.98Zm-5.98,2.68h1.63a0.538,0.538,0,0,0,.54-0.54v-1.6a0.538,0.538,0,0,0-.54-0.54h-1.63a0.538,0.538,0,0,0-.54.54v1.6A0.538,0.538,0,0,0,1026.59,1072.66Zm5.98,9.09h-14.13a0.527,0.527,0,0,0-.54.52v0.02a0.527,0.527,0,0,0,.54.52h14.13a0.527,0.527,0,0,0,.54-0.52v-0.02A0.527,0.527,0,0,0,1032.57,1081.75Zm-14.13-5.35h9.24a0.536,0.536,0,0,0,.54-0.53v-0.01a0.536,0.536,0,0,0-.54-0.53h-9.24a0.536,0.536,0,0,0-.54.53v0.01A0.536,0.536,0,0,0,1018.44,1076.4Zm14.13,8.55h-14.13a0.536,0.536,0,0,0-.54.53v0.01a0.529,0.529,0,0,0,.54.53h14.13a0.529,0.529,0,0,0,.54-0.53v-0.01A0.536,0.536,0,0,0,1032.57,1084.95Zm-14.13-12.29h1.63a0.538,0.538,0,0,0,.54-0.54v-1.6a0.538,0.538,0,0,0-.54-0.54h-1.63a0.538,0.538,0,0,0-.54.54v1.6A0.538,0.538,0,0,0,1018.44,1072.66Zm4.35,0h1.63a0.538,0.538,0,0,0,.54-0.54v-1.6a0.538,0.538,0,0,0-.54-0.54h-1.63a0.538,0.538,0,0,0-.54.54v1.6A0.532,0.532,0,0,0,1022.79,1072.66Zm9.78,18.71h-14.13a0.536,0.536,0,0,0-.54.53v0.01a0.536,0.536,0,0,0,.54.53h14.13a0.536,0.536,0,0,0,.54-0.53v-0.01A0.536,0.536,0,0,0,1032.57,1091.37Zm0-3.21h-14.13a0.536,0.536,0,0,0-.54.53v0.01a0.536,0.536,0,0,0,.54.53h14.13a0.536,0.536,0,0,0,.54-0.53v-0.01A0.536,0.536,0,0,0,1032.57,1088.16Z" transform="translate(-1013 -1060.91)"/>
	</symbol>

	<symbol id="shest" xmlns="http://www.w3.org/2000/svg" viewBox="0 0 40.59 39.91">
		<filter id="filter" x="1305" y="1061" width="40.59" height="39.91" filterUnits="userSpaceOnUse">
			<feFlood result="flood" flood-color="#636363"/>
			<feComposite result="composite" operator="in" in2="SourceGraphic"/>
			<feBlend result="blend" in2="SourceGraphic"/>
		</filter>
		<path id="icon" class="cls-1" d="M1340.22,1076.06l-0.19-.07-0.75-1.81,0.08-.18c2.28-5.2,2.13-5.36,1.75-5.73l-3.05-2.99a0.858,0.858,0,0,0-.53-0.21c-0.18,0-.69,0-5.2,2.05l-0.18.08-1.85-.75-0.08-.19c-2.12-5.26-2.33-5.26-2.86-5.26h-4.3c-0.53,0-.77,0-2.73,5.27l-0.07.19-1.85.76-0.18-.08a29.227,29.227,0,0,0-5.29-1.94,0.814,0.814,0,0,0-.53.21l-3.05,2.99c-0.39.39-.55,0.55,1.85,5.64l0.09,0.19-0.75,1.8-0.19.08c-5.36,2.08-5.36,2.28-5.36,2.82v4.23c0,0.55,0,.77,5.37,2.71l0.2,0.06,0.75,1.8-0.08.19c-2.29,5.2-2.14,5.34-1.75,5.73l3.04,2.99a0.862,0.862,0,0,0,.54.21c0.17,0,.69,0,5.19-2.05l0.18-.08,1.86,0.75,0.07,0.19c2.12,5.26,2.34,5.26,2.87,5.26h4.3c0.54,0,.77,0,2.73-5.27l0.07-.2,1.85-.75,0.18,0.08a28.405,28.405,0,0,0,5.28,1.94,0.81,0.81,0,0,0,.54-0.21l3.06-3c0.38-.38.54-0.54-1.87-5.63l-0.09-.19,0.76-1.8,0.18-.07c5.37-2.09,5.37-2.29,5.37-2.83v-4.24C1345.6,1078.21,1345.6,1077.99,1340.22,1076.06Zm-14.92,11.77a6.866,6.866,0,1,1,6.97-6.87A6.938,6.938,0,0,1,1325.3,1087.83Z" transform="translate(-1305 -1061)"/>
	</symbol>

	<symbol id="image" xmlns="http://www.w3.org/2000/svg" viewBox="0 0 21 16.03">
			<filter id="filter" x="415" y="3384.97" width="21" height="16.03" filterUnits="userSpaceOnUse">
				<feFlood result="flood" flood-color="#fff"/>
				<feComposite result="composite" operator="in" in2="SourceGraphic"/>
				<feBlend result="blend" in2="SourceGraphic"/>
			</filter>
		<path id="icon" class="cls-1" d="M430.63,3392.24c-0.975.45-1.77,1.84-2.7,0.93a30.264,30.264,0,0,1-2.006-2.65c-0.834-1.17-1.9-2.17-3.145-1.02-1.395,1.29-2.354,4.78-2.437,6.58l13.183,0.01C433.223,3395.03,432.052,3391.57,430.63,3392.24Zm-0.061-5.22a1.6,1.6,0,1,1-1.621,1.59A1.611,1.611,0,0,1,430.569,3387.02Zm4.941-2.04H418.357a0.475,0.475,0,0,0-.481.47v2.4h-2.407a0.476,0.476,0,0,0-.482.47v12.2a0.484,0.484,0,0,0,.482.48h17.153a0.484,0.484,0,0,0,.482-0.48v-2.39h2.406a0.476,0.476,0,0,0,.482-0.47v-12.21A0.476,0.476,0,0,0,435.51,3384.98Zm-3.7,14.75H416.281v-10.61h1.595v7.37a12.446,12.446,0,0,0-.422,2.46h13.183c-0.058-.2-0.148-0.49-0.265-0.82h1.438v1.6Zm2.888-2.87H419.169v-10.61H434.7v10.61Z" transform="translate(-415 -3384.97)"/>
	</symbol>

	<symbol id="photo-camera" xmlns="http://www.w3.org/2000/svg" viewBox="0 0 22 16">
			<filter id="filter" x="415" y="3776" width="22" height="16" filterUnits="userSpaceOnUse">
				<feFlood result="flood" flood-color="#fff"/>
				<feComposite result="composite" operator="in" in2="SourceGraphic"/>
				<feBlend result="blend" in2="SourceGraphic"/>
			</filter>
		<path id="icon" class="cls-1" d="M428.741,3781.64a3.265,3.265,0,1,0,3.258,3.27A3.27,3.27,0,0,0,428.741,3781.64Zm5.339-3.98h-1.393l-1.769-1.66h-4.911l-1.437,1.66H421.6a1.047,1.047,0,0,0-.921-0.92h-2.1a1.057,1.057,0,0,0-.924.93,2.923,2.923,0,0,0-2.653,2.91v8.5a2.91,2.91,0,0,0,2.91,2.91H434.08a2.909,2.909,0,0,0,2.909-2.91v-8.5A2.917,2.917,0,0,0,434.08,3777.66Zm-16.439,10.66a0.55,0.55,0,0,1-1.1,0v-5.81a0.55,0.55,0,1,1,1.1,0v5.81Zm3.308-8.51a0.581,0.581,0,0,1-.581.58h-1.49a0.581,0.581,0,0,1-.581-0.58v-0.34a0.581,0.581,0,0,1,.581-0.58h1.49a0.581,0.581,0,0,1,.581.58v0.34Zm7.792,9.75a4.655,4.655,0,1,1,4.648-4.66A4.66,4.66,0,0,1,428.741,3789.56Z" transform="translate(-415 -3776)"/>
	</symbol>

	<symbol id="video" xmlns="http://www.w3.org/2000/svg"  viewBox="0 0 18 20">
			<filter id="filter" x="886" y="3775" width="18" height="20" filterUnits="userSpaceOnUse">
				<feFlood result="flood" flood-color="#fff"/>
				<feComposite result="composite" operator="in" in2="SourceGraphic"/>
				<feBlend result="blend" in2="SourceGraphic"/>
			</filter>
		<path id="icon" class="cls-1" d="M887.205,3795H902.8a1.242,1.242,0,0,0,1.207-1.27v-17.46A1.242,1.242,0,0,0,902.8,3775h-15.59a1.242,1.242,0,0,0-1.208,1.27v17.46A1.242,1.242,0,0,0,887.205,3795Zm13.852-18.44a0.373,0.373,0,0,1,.363-0.38h1.131a0.371,0.371,0,0,1,.362.38v1.23a0.371,0.371,0,0,1-.362.38H901.42a0.373,0.373,0,0,1-.363-0.38v-1.23Zm0,3.13a0.382,0.382,0,0,1,.363-0.39h1.131a0.38,0.38,0,0,1,.362.39v1.23a0.371,0.371,0,0,1-.362.38H901.42a0.373,0.373,0,0,1-.363-0.38v-1.23Zm0,3.13a0.373,0.373,0,0,1,.363-0.38h1.131a0.371,0.371,0,0,1,.362.38v1.23a0.371,0.371,0,0,1-.362.38H901.42a0.373,0.373,0,0,1-.363-0.38v-1.23Zm0,3.13a0.373,0.373,0,0,1,.363-0.38h1.131a0.371,0.371,0,0,1,.362.38v1.23a0.371,0.371,0,0,1-.362.38H901.42a0.373,0.373,0,0,1-.363-0.38v-1.23Zm0,3.13a0.373,0.373,0,0,1,.363-0.38h1.131a0.371,0.371,0,0,1,.362.38v1.23a0.371,0.371,0,0,1-.362.38H901.42a0.373,0.373,0,0,1-.363-0.38v-1.23Zm0,3.13a0.373,0.373,0,0,1,.363-0.38h1.131a0.371,0.371,0,0,1,.362.38v1.23a0.38,0.38,0,0,1-.362.39H901.42a0.382,0.382,0,0,1-.363-0.39v-1.23Zm-10.874-14.73a0.372,0.372,0,0,1,.363-0.38h8.908a0.372,0.372,0,0,1,.362.38v6.09a0.382,0.382,0,0,1-.362.39h-8.908a0.381,0.381,0,0,1-.363-0.39v-6.09Zm0,9.4a0.372,0.372,0,0,1,.363-0.38h8.908a0.372,0.372,0,0,1,.362.38v5.63a0.372,0.372,0,0,1-.362.38h-8.908a0.372,0.372,0,0,1-.363-0.38v-5.63Zm-3.1-10.32a0.371,0.371,0,0,1,.362-0.38h1.132a0.371,0.371,0,0,1,.361.38v1.23a0.371,0.371,0,0,1-.361.38h-1.132a0.371,0.371,0,0,1-.362-0.38v-1.23Zm0,3.13a0.38,0.38,0,0,1,.362-0.39h1.132a0.38,0.38,0,0,1,.361.39v1.23a0.371,0.371,0,0,1-.361.38h-1.132a0.371,0.371,0,0,1-.362-0.38v-1.23Zm0,3.13a0.371,0.371,0,0,1,.362-0.38h1.132a0.371,0.371,0,0,1,.361.38v1.23a0.371,0.371,0,0,1-.361.38h-1.132a0.371,0.371,0,0,1-.362-0.38v-1.23Zm0,3.13a0.371,0.371,0,0,1,.362-0.38h1.132a0.371,0.371,0,0,1,.361.38v1.23a0.371,0.371,0,0,1-.361.38h-1.132a0.371,0.371,0,0,1-.362-0.38v-1.23Zm0,3.13a0.371,0.371,0,0,1,.362-0.38h1.132a0.371,0.371,0,0,1,.361.38v1.23a0.371,0.371,0,0,1-.361.38h-1.132a0.371,0.371,0,0,1-.362-0.38v-1.23Zm0,3.13a0.371,0.371,0,0,1,.362-0.38h1.132a0.371,0.371,0,0,1,.361.38v1.23a0.38,0.38,0,0,1-.361.39h-1.132a0.38,0.38,0,0,1-.362-0.39v-1.23Z" transform="translate(-886 -3775)"/>
	</symbol>



</svg>


